# xmcd
#
# Track frame offsets:
# 150
# 15351
# 29254
# 43978
# 58143
# 73409
# 87861
# 101529
# 114616
# 127791
# 141342
# 153852
# 166247
# 179397
# 192271
# 204922
# 216904
# 229989
# 242552
# 255553
# 266679
# 278550
#
# Disc length: 3875 seconds
#
# Revision: 0
# Processed by: cddbd v1.4PL0 Copyright (c) Steve Scherf et al.
# Submitted via: Axialis_AX_CDPlayer 2.6
#
DISCID=380f2116
DTITLE=Fuller, Blind Boy - Blind Boy Fuller, Vol. 3, 1937
DYEAR=1900
DGENRE=
TTITLE0=Put You Back in the Jail 
TTITLE1=Walking and Looking Blues
TTITLE2=Bulldog Blues
TTITLE3=Where My Woman Usta Lay
TTITLE4=Working Man Blues
TTITLE5=Weeping Willow
TTITLE6=Corrine What Makes You Treat Me So?
TTITLE7=Stealing Bo-Hog
TTITLE8=Worried and Evil Man Blues
TTITLE9=Bull Dog Blues
TTITLE10=Break of Day Blues
TTITLE11=Oh Zee Zas Rag
TTITLE12=Throw Your Yas Yas Back in Jail
TTITLE13=Snake Woman Blues
TTITLE14=Mojo Hidin' Woman
TTITLE15=Steel Hearted Woman
TTITLE16=Ain't No Gettin' Along
TTITLE17=Careless Love
TTITLE18=New Louise Louise Blues
TTITLE19=Mistreater, You're Going to Be Sorry
TTITLE20=Bye Bye Baby Blues
TTITLE21=Looking for My Woman, No. 2
EXTD=
EXTT0=
EXTT1=
EXTT2=
EXTT3=
EXTT4=
EXTT5=
EXTT6=
EXTT7=
EXTT8=
EXTT9=
EXTT10=
EXTT11=
EXTT12=
EXTT13=
EXTT14=
EXTT15=
EXTT16=
EXTT17=
EXTT18=
EXTT19=
EXTT20=
EXTT21=
PLAYORDER=
